<svg width="21" height="21" viewBox="0 0 21 21" fill="none" xmlns="http://www.w3.org/2000/svg">
<rect x="0.39209" y="1.13428" width="19.5" height="19.5" rx="3.75" stroke="#FBFBFB" stroke-width="0.5"/>
<path d="M15.6421 4.88428H7.64209C7.50948 4.88428 7.3823 4.93696 7.28854 5.03072C7.19477 5.12449 7.14209 5.25167 7.14209 5.38428V7.88428H4.64209C4.50948 7.88428 4.3823 7.93696 4.28854 8.03072C4.19477 8.12449 4.14209 8.25167 4.14209 8.38428V16.3843C4.14209 16.5169 4.19477 16.6441 4.28854 16.7378C4.3823 16.8316 4.50948 16.8843 4.64209 16.8843H12.6421C12.7747 16.8843 12.9019 16.8316 12.9956 16.7378C13.0894 16.6441 13.1421 16.5169 13.1421 16.3843V13.8843H15.6421C15.7747 13.8843 15.9019 13.8316 15.9956 13.7378C16.0894 13.6441 16.1421 13.5169 16.1421 13.3843V5.38428C16.1421 5.25167 16.0894 5.12449 15.9956 5.03072C15.9019 4.93696 15.7747 4.88428 15.6421 4.88428ZM15.1421 12.8843H13.1421V8.38428C13.1421 8.25167 13.0894 8.12449 12.9956 8.03072C12.9019 7.93696 12.7747 7.88428 12.6421 7.88428H8.14209V5.88428H15.1421V12.8843Z" fill="#FBFBFB"/>
</svg>
