<svg width="13" height="13" viewBox="0 0 13 13" fill="none" xmlns="http://www.w3.org/2000/svg">
<path d="M11.6421 0.884277H3.64209C3.50948 0.884277 3.3823 0.936956 3.28854 1.03072C3.19477 1.12449 3.14209 1.25167 3.14209 1.38428V3.88428H0.64209C0.509482 3.88428 0.382305 3.93696 0.288537 4.03072C0.194768 4.12449 0.14209 4.25167 0.14209 4.38428V12.3843C0.14209 12.5169 0.194768 12.6441 0.288537 12.7378C0.382305 12.8316 0.509482 12.8843 0.64209 12.8843H8.64209C8.7747 12.8843 8.90188 12.8316 8.99564 12.7378C9.08941 12.6441 9.14209 12.5169 9.14209 12.3843V9.88428H11.6421C11.7747 9.88428 11.9019 9.8316 11.9956 9.73783C12.0894 9.64406 12.1421 9.51689 12.1421 9.38428V1.38428C12.1421 1.25167 12.0894 1.12449 11.9956 1.03072C11.9019 0.936956 11.7747 0.884277 11.6421 0.884277ZM11.1421 8.88428H9.14209V4.38428C9.14209 4.25167 9.08941 4.12449 8.99564 4.03072C8.90188 3.93696 8.7747 3.88428 8.64209 3.88428H4.14209V1.88428H11.1421V8.88428Z" fill="#FBFBFB"/>
</svg>
