<svg width="25" height="25" viewBox="0 0 25 25" fill="none" xmlns="http://www.w3.org/2000/svg">
<path d="M18.0003 4.1574C17.9808 4.14074 17.9605 4.1251 17.9394 4.11053C17.9178 4.09553 17.8953 4.08146 17.8728 4.06834C15.7859 2.55981 13.1863 1.93957 10.6431 2.34339C8.09986 2.74722 5.82025 4.14221 4.30325 6.22299C2.78625 8.30377 2.15545 10.9008 2.54894 13.4457C2.94242 15.9905 4.32814 18.2757 6.40274 19.8012C8.47734 21.3266 11.0718 21.968 13.6182 21.5848C16.1646 21.2017 18.4555 19.8253 19.9894 17.7569C21.5232 15.6885 22.1751 13.0967 21.8023 10.5487C21.4295 8.00079 20.0624 5.70434 18.0003 4.16208V4.1574ZM12.3476 14.3462C11.9027 14.3462 11.4677 14.2143 11.0977 13.9671C10.7277 13.7199 10.4394 13.3685 10.2691 12.9574C10.0988 12.5463 10.0542 12.0939 10.141 11.6575C10.2279 11.2211 10.4421 10.8202 10.7568 10.5056C11.0714 10.1909 11.4723 9.97665 11.9087 9.88984C12.3451 9.80303 12.7975 9.84758 13.2086 10.0179C13.6197 10.1881 13.9711 10.4765 14.2183 10.8465C14.4655 11.2165 14.5974 11.6515 14.5974 12.0964C14.5974 12.6931 14.3604 13.2654 13.9385 13.6873C13.5166 14.1092 12.9443 14.3462 12.3476 14.3462ZM20.5969 12.0964C20.5969 12.328 20.5866 12.5576 20.5679 12.7845L16.0973 11.9952C16.0721 11.0707 15.7046 10.1885 15.0662 9.51945L17.6703 5.8007C18.5873 6.57351 19.3244 7.53739 19.8299 8.62487C20.3355 9.71236 20.5972 10.8972 20.5969 12.0964Z" fill="#FBFBFB"/>
</svg>
