<svg width="25" height="25" viewBox="0 0 25 25" fill="none" xmlns="http://www.w3.org/2000/svg">
<path d="M21.3393 12.1355V21.1348C21.3393 21.3337 21.2603 21.5244 21.1197 21.6651C20.979 21.8057 20.7883 21.8847 20.5894 21.8847H15.3398C15.1409 21.8847 14.9502 21.8057 14.8095 21.6651C14.6689 21.5244 14.5899 21.3337 14.5899 21.1348V16.2602C14.5899 16.1607 14.5504 16.0654 14.4801 15.995C14.4097 15.9247 14.3144 15.8852 14.2149 15.8852H10.4652C10.3658 15.8852 10.2704 15.9247 10.2001 15.995C10.1298 16.0654 10.0903 16.1607 10.0903 16.2602V21.1348C10.0903 21.3337 10.0112 21.5244 9.87061 21.6651C9.72997 21.8057 9.53922 21.8847 9.34032 21.8847H4.09076C3.89186 21.8847 3.70111 21.8057 3.56047 21.6651C3.41983 21.5244 3.34082 21.3337 3.34082 21.1348V12.1355C3.341 11.7378 3.49915 11.3564 3.78047 11.0753L11.2798 3.57592C11.5611 3.29485 11.9425 3.13696 12.3401 3.13696C12.7377 3.13696 13.119 3.29485 13.4003 3.57592L20.8997 11.0753C21.181 11.3564 21.3391 11.7378 21.3393 12.1355Z" fill="#FBFBFB"/>
</svg>
