<svg width="25" height="25" viewBox="0 0 25 25" fill="none" xmlns="http://www.w3.org/2000/svg">
<path d="M12.3434 2.34741C10.4152 2.34741 8.53032 2.91919 6.92707 3.99045C5.32383 5.0617 4.07425 6.58432 3.33636 8.36575C2.59846 10.1472 2.4054 12.1074 2.78157 13.9986C3.15775 15.8897 4.08627 17.6269 5.44971 18.9903C6.81316 20.3538 8.5503 21.2823 10.4415 21.6585C12.3326 22.0346 14.2929 21.8416 16.0743 21.1037C17.8557 20.3658 19.3783 19.1162 20.4496 17.513C21.5208 15.9097 22.0926 14.0248 22.0926 12.0966C22.0899 9.51179 21.0619 7.03363 19.2341 5.2059C17.4064 3.37816 14.9282 2.35014 12.3434 2.34741ZM12.3434 18.0961C12.1209 18.0961 11.9035 18.0301 11.7185 17.9065C11.5335 17.7829 11.3893 17.6072 11.3042 17.4017C11.219 17.1961 11.1967 16.9699 11.2401 16.7517C11.2835 16.5335 11.3907 16.3331 11.548 16.1758C11.7053 16.0184 11.9058 15.9113 12.124 15.8679C12.3422 15.8245 12.5684 15.8468 12.7739 15.9319C12.9795 16.0171 13.1551 16.1612 13.2788 16.3462C13.4024 16.5312 13.4683 16.7487 13.4683 16.9712C13.4683 17.2695 13.3498 17.5557 13.1389 17.7666C12.9279 17.9776 12.6418 18.0961 12.3434 18.0961ZM13.0934 13.529V13.5965C13.0934 13.7954 13.0144 13.9861 12.8737 14.1268C12.7331 14.2674 12.5423 14.3464 12.3434 14.3464C12.1445 14.3464 11.9538 14.2674 11.8131 14.1268C11.6725 13.9861 11.5935 13.7954 11.5935 13.5965V12.8465C11.5935 12.6476 11.6725 12.4569 11.8131 12.3163C11.9538 12.1756 12.1445 12.0966 12.3434 12.0966C13.5836 12.0966 14.5932 11.2529 14.5932 10.2218C14.5932 9.19059 13.5836 8.34691 12.3434 8.34691C11.1032 8.34691 10.0936 9.19059 10.0936 10.2218V10.5967C10.0936 10.7956 10.0146 10.9864 9.87397 11.127C9.73333 11.2677 9.54258 11.3467 9.34368 11.3467C9.14478 11.3467 8.95404 11.2677 8.81339 11.127C8.67275 10.9864 8.59374 10.7956 8.59374 10.5967V10.2218C8.59374 8.36097 10.2755 6.84704 12.3434 6.84704C14.4114 6.84704 16.0931 8.36097 16.0931 10.2218C16.0931 11.851 14.8032 13.2149 13.0934 13.529Z" fill="#FBFBFB"/>
</svg>
